<svg enable-background="new 0 0 101.1 101.1" viewBox="0 0 101.1 101.1" xmlns="http://www.w3.org/2000/svg"><path d="m0 0h101.1v101.1h-101.1z" fill="#00386b"/><g fill="#fff"><path d="m34.2 40 3.6-7h.7l-3.6 7 3.6 7h-.7zm1.4 0 3.6-7h.7l-3.6 7 3.6 7h-.7zm1.3 0 3.6-7h.7l-3.6 7 3.6 7h-.7zm1.4 0 3.6-7h.7l-3.6 7 3.6 7h-.7zm-8.1 7h-.6v-14h.6zm1.2 0h-.6v-14h.6zm1.2 0h-.6v-14h.6zm1.2 0h-.6v-14h.6z"/><path d="m48.3 44h6.5v.6h-6.5v.6h6.5v.6h-6.5v.6h6.5v.6h-7.1v-14h7.1v.6h-6.5v.6h6.5v.6h-6.5v.6h6.5v.6h-6.5v2.4h3.3v.6h-3.3v.6h3.3v.6h-3.3v.6h3.3v.6h-3.3zm-3.7 3h-.6v-14h.6zm1.2 0h-.6v-14h.6zm1.2 0h-.6v-14h.6z"/><path d="m67.6 37.5h-.4c.7-.9 1.2-1.7 1.5-2.1.3-.5.5-.8.6-1.1.1-.2.1-.5.1-.8s-.1-.6-.2-.9-.2-.5-.4-.7-.4-.3-.6-.5c-.3-.1-.5-.2-.8-.3s-.6-.1-1-.1c-.6 0-1.3.1-2 .3l-.1-.4c.7-.2 1.4-.3 2.1-.3.5 0 1 .1 1.4.2s.8.3 1.1.5.5.5.7.9.3.8.3 1.2c0 .3 0 .6-.1.8-.1.3-.3.6-.6 1.1-.4.7-.9 1.3-1.6 2.2zm-.9 0h-.4c1.2-1.6 1.9-2.6 2.1-2.9.2-.4.4-.7.4-1s-.1-.6-.2-.8-.3-.4-.5-.5-.5-.2-.7-.3c-.3-.1-.6-.1-.9-.1-.6 0-1.2.1-1.9.3l-.1-.4c.7-.2 1.3-.3 1.9-.3.3 0 .6 0 .8.1.3 0 .5.1.7.2s.4.2.6.4.3.4.4.6.1.5.1.8c0 .2-.1.4-.2.7-.1.2-.3.6-.6 1-.2.4-.7 1.2-1.5 2.2zm-.8 0h-.4c1.3-1.7 2-2.6 2.1-2.8.3-.4.4-.7.5-.9 0 0 0-.1 0-.2 0-.7-.5-1-1.6-1-.3 0-.7 0-1 .1s-.6.1-.7.2l-.1-.3c.6-.2 1.2-.3 1.8-.3h.6c.2 0 .4.1.5.1.2.1.3.2.4.3s.2.2.3.4.1.3.1.6c0 .2-.1.5-.3.8s-.9 1.2-1.9 2.6c-.1.1-.2.3-.3.4zm-.8 0h-.4c.2-.3.5-.6.7-.9s.4-.6.6-.8.3-.4.5-.6c.1-.2.3-.4.3-.5.1-.1.2-.2.3-.3s.1-.2.2-.3c0-.1.1-.1.1-.2s.1-.1.1-.1v-.1c0-.2-.1-.3-.2-.3s-.4-.1-.7-.1c-.5 0-1.1.1-1.6.2l-.1-.3c.1 0 .3-.1.6-.1.3-.1.7-.1 1-.1h.5c.1 0 .3.1.4.1.1.1.2.1.3.2s.1.2.1.4-.1.3-.2.6c-.1.2-.5.8-1.1 1.6-.7.6-1.1 1.1-1.4 1.6zm-.6 2v-.4h4.9v.4zm0-.7v-.4h4.9v.4zm0-.8v-.4h4.9v.4zm-3-1.6.2-.3 2.2 3.5h-.4zm-1.6-3.2-.2.4-.9-1.3h.5zm1.1 3.9.2-.4 1.8 2.8h-.5zm-1.6-3.2-.2.4-1.3-2h.5zm1.2 3.9.2-.3 1.3 2.1h-.4zm-1.6-3.2-.2.3-1.8-2.7h.4zm1.1 3.9.2-.4.9 1.4h-.5zm-1.6-3.2-.2.4-2.2-3.5h.4zm2.3-3.1h.5l-4.7 7.3h-.4zm.9 0h.5l-4.7 7.3h-.5zm.9 0h.4l-4.7 7.3h-.4zm.9 0h.4l-4.7 7.3h-.5z"/><path d="m58.4 62.1 6.1-12.9h.9l-6.6 13.8v7h-.9v-7l-6.6-13.9h.9zm5 .9 6.6-13.8h.9l-6.6 13.8v7h-.9zm-1.8 0 6.6-13.9h.9l-6.6 13.9v7h-.9zm-1.9 0 6.6-13.9h.9l-6.5 13.9v7h-.9v-7zm1.2-7.4-.5 1-3.6-7.4h.9zm-.9 2-.5 1-4.5-9.4h.9zm-.9 2-.5 1-5.5-11.4h.9zm-28.8-8.9v19.4h-.9v-20.9h1.1l12.8 20.9h-1zm5.5-1.5h1.1l11.9 19.4v-19.4h.9v20.9s-.4 0-1.1 0zm-2.1 0h1.1l12.8 20.9h-1.1zm-2.2 0h1.1l12.9 20.9h-1.1zm-.3 4 .9 1.5v15.3h-.9zm1.8 3.1.9 1.5v12.3h-.9zm1.8 2.9.9 1.5v9.3h-.9zm13.1 6.8-.9-1.5v-15.3h.9zm-1.8-3-.9-1.5v-12.3h.9zm-1.9-3-.9-1.5v-9.3h.9z"/><path d="m76.4 46.8v-5.2c0-.6-.2-1.1-.5-1.5s-.7-.5-1.2-.5h-2.1v-1.2h2c.8 0 1.5.3 2.1.9s.8 1.4.8 2.4v5.2c0 1 .2 1.9.5 2.7s.7 1.5 1.3 2c.5.5 1.1.9 1.8 1.2s1.4.4 2.2.4h1.4v1.2h-1.3c-.9 0-1.8-.2-2.6-.5s-1.6-.8-2.2-1.5c-.6-.6-1.2-1.4-1.5-2.4-.5-1-.7-2.1-.7-3.2zm2.5 0v-5.2c0-1.4-.4-2.5-1.2-3.3s-1.8-1.2-2.9-1.2h-2v-1.2h2c1.5 0 2.8.5 3.8 1.6 1.1 1 1.6 2.4 1.6 4.2v5.2c0 1.2.3 2.1.9 2.8.6.6 1.4 1 2.3 1h1.4v1.2h-1.4c-1.2 0-2.3-.4-3.1-1.3s-1.4-2.2-1.4-3.8zm2.4 0v-5.2c0-2.1-.6-3.8-1.9-5.1s-2.8-1.9-4.7-1.9h-2.1v-1.2h2c1.4 0 2.7.3 3.8 1 1.2.6 2.1 1.6 2.9 2.9.7 1.3 1.1 2.7 1.1 4.4v5.2c0 .5.1.9.2 1 .1.2.4.3.6.3h1.3v1.2h-1.3c-.6 0-1.1-.2-1.5-.6-.2-.5-.4-1.2-.4-2zm-4.1 5.3.9.9c-.3.8-.4 1.6-.4 2.6v6.6c0 1-.3 1.8-.8 2.4-.6.6-1.2.9-2.1.9h-2v-1.2h2.1c.5 0 .9-.2 1.2-.5.3-.4.5-.9.5-1.5v-6.6c-.2-1.4.1-2.6.6-3.6zm1.9 1.7 1.1.6c-.1.6-.2 1-.2 1.2v6.6c0 1.8-.5 3.2-1.6 4.2-1 1-2.3 1.6-3.8 1.6h-2v-1.2h2c1.2 0 2.1-.4 2.9-1.2s1.2-1.9 1.2-3.3v-6.6c.2-.7.3-1.3.4-1.9zm2.3 1 1.2.1c0 .2-.1.5-.1.7v6.6c0 1.6-.4 3.1-1.1 4.4s-1.7 2.2-2.9 2.9c-1.2.6-2.5 1-3.8 1h-2v-1.2h2.1c1.8 0 3.4-.6 4.7-1.9s1.9-3 1.9-5.1v-6.6c-.1-.5 0-.7 0-.9z"/><path d="m19.7 49-1.2-.1c0-.2.1-.5.1-.7v-6.6c0-1.6.4-3.1 1.1-4.4s1.7-2.2 2.9-2.9c1.2-.6 2.5-1 3.9-1h2v1.2h-2.1c-1.8 0-3.4.6-4.7 1.9s-1.9 3-1.9 5.1v6.6c-.1.4-.1.7-.1.9zm2.3 1-1.1-.6c.1-.6.2-1 .2-1.2v-6.6c0-1.8.5-3.2 1.6-4.2s2.3-1.6 3.8-1.6h2v1.2h-2c-1.2 0-2.1.4-2.9 1.2s-1.2 1.9-1.2 3.3v6.6c-.2.7-.3 1.3-.4 1.9zm1.9 1.7-.9-.9c.3-.8.4-1.6.4-2.6v-6.6c0-1 .3-1.8.8-2.4.6-.6 1.2-.9 2.1-.9h2v1.2h-2.1c-.5 0-.9.2-1.2.5-.3.4-.5.9-.5 1.5v6.6c.2 1.4-.1 2.5-.6 3.6zm-4.2 5.2v5.2c0 2.1.6 3.8 1.9 5.1s2.8 1.9 4.7 1.9h2.1v1.2h-2c-1.4 0-2.7-.3-3.9-1-1.2-.6-2.1-1.6-2.9-2.9-.7-1.3-1.1-2.7-1.1-4.4v-5.2c0-.5-.1-.9-.2-1-.1-.2-.4-.3-.6-.3h-1.3v-1.2h1.3c.6 0 1.1.2 1.5.6.4.6.5 1.2.5 2zm2.5 0v5.2c0 1.4.4 2.5 1.2 3.3s1.8 1.2 2.9 1.2h2v1.2h-2c-1.5 0-2.8-.5-3.8-1.6-1-1-1.6-2.4-1.6-4.2v-5.2c0-1.2-.3-2.1-.9-2.8-.6-.6-1.4-1-2.3-1h-1.4v-1h1.4c1.2 0 2.3.4 3.1 1.3 1 .9 1.4 2.1 1.4 3.6zm2.5 0v5.2c0 .6.2 1.1.5 1.5s.7.5 1.2.5h2.1v1.2h-2c-.8 0-1.5-.3-2.1-.9s-.8-1.4-.8-2.4v-5.2c0-1-.2-1.9-.5-2.7s-.7-1.5-1.2-2-1.1-.9-1.8-1.2-1.4-.4-2.1-.4h-1.4v-1.2h1.3c.9 0 1.8.2 2.6.5s1.6.8 2.2 1.5c.6.6 1.2 1.4 1.5 2.4.3 1.1.5 2.1.5 3.2z"/></g></svg>