<?xml version="1.0" encoding="utf-8"?>
<!-- Generator: Adobe Illustrator 25.3.1, SVG Export Plug-In . SVG Version: 6.00 Build 0)  -->
<svg version="1.1" id="Layer_1" xmlns="http://www.w3.org/2000/svg" xmlns:xlink="http://www.w3.org/1999/xlink" x="0px" y="0px"
	 viewBox="0 0 101.1 101.1" style="enable-background:new 0 0 101.1 101.1;" xml:space="preserve">
<style type="text/css">
	.st0{fill:#00407A;}
</style>
<path class="st0" d="M0,0v101.1h101.1V0H0z M66.5,30.7c0.5,0,1,0.1,1.4,0.2c0.4,0.1,0.8,0.3,1.1,0.5c0.3,0.2,0.5,0.5,0.7,0.9
	c0.2,0.4,0.3,0.8,0.3,1.2c0,0.3,0,0.6-0.1,0.8c-0.1,0.3-0.3,0.6-0.6,1.1c-0.3,0.5-0.8,1.2-1.5,2h-0.4c0.7-0.9,1.2-1.7,1.5-2.1
	c0.3-0.5,0.5-0.8,0.6-1.1c0.1-0.2,0.1-0.5,0.1-0.8c0-0.3-0.1-0.6-0.2-0.9c-0.1-0.3-0.2-0.5-0.4-0.7c-0.2-0.2-0.4-0.3-0.6-0.5
	c-0.3-0.1-0.5-0.2-0.8-0.3c-0.3-0.1-0.6-0.1-1-0.1c-0.6,0-1.3,0.1-2,0.3l-0.1-0.4C65.1,30.8,65.8,30.7,66.5,30.7z M64.5,38.8v-0.4
	h4.9v0.4H64.5z M69.5,39.1v0.4h-4.9v-0.4H69.5z M64.5,38v-0.4h4.9V38H64.5z M67.2,33.4c-0.1,0-0.4-0.1-0.7-0.1
	c-0.5,0-1.1,0.1-1.6,0.2l-0.1-0.3c0.1,0,0.3-0.1,0.6-0.1c0.3-0.1,0.7-0.1,1-0.1c0.2,0,0.4,0,0.5,0c0.1,0,0.3,0.1,0.4,0.1
	c0.1,0.1,0.2,0.1,0.3,0.2c0.1,0.1,0.1,0.2,0.1,0.4s-0.1,0.3-0.2,0.6c-0.1,0.2-0.5,0.8-1.1,1.6c-0.5,0.7-0.9,1.2-1.3,1.7h-0.4
	c0.2-0.3,0.5-0.6,0.7-0.9c0.2-0.3,0.4-0.6,0.6-0.8c0.2-0.2,0.3-0.4,0.5-0.6c0.1-0.2,0.3-0.4,0.3-0.5c0.1-0.1,0.2-0.2,0.3-0.3
	s0.1-0.2,0.2-0.3c0-0.1,0.1-0.1,0.1-0.2c0-0.1,0.1-0.1,0.1-0.1c0,0,0-0.1,0-0.1C67.3,33.5,67.3,33.4,67.2,33.4z M67.6,34.6
	c0.3-0.4,0.4-0.7,0.5-0.9c0,0,0-0.1,0-0.2c0-0.7-0.5-1-1.6-1c-0.3,0-0.7,0-1,0.1c-0.3,0.1-0.6,0.1-0.7,0.2l-0.1-0.3
	c0.6-0.2,1.2-0.3,1.8-0.3c0.2,0,0.4,0,0.6,0c0.2,0,0.4,0.1,0.5,0.1s0.3,0.2,0.4,0.3c0.1,0.1,0.2,0.2,0.3,0.4
	c0.1,0.2,0.1,0.3,0.1,0.6c0,0.2-0.1,0.5-0.3,0.8c-0.2,0.3-0.9,1.2-1.9,2.6c-0.1,0.2-0.2,0.3-0.3,0.4h-0.4
	C66.7,35.8,67.4,34.8,67.6,34.6z M68.4,34.5c0.2-0.4,0.4-0.7,0.4-1c0-0.3-0.1-0.6-0.2-0.8c-0.1-0.2-0.3-0.4-0.5-0.5
	c-0.2-0.1-0.5-0.2-0.7-0.3c-0.3-0.1-0.6-0.1-0.9-0.1c-0.6,0-1.2,0.1-1.9,0.3l-0.1-0.4c0.7-0.2,1.3-0.3,1.9-0.3c0.3,0,0.6,0,0.8,0.1
	c0.3,0,0.5,0.1,0.7,0.2c0.2,0.1,0.4,0.2,0.6,0.4c0.2,0.2,0.3,0.4,0.4,0.6c0.1,0.2,0.1,0.5,0.1,0.8c0,0.2-0.1,0.4-0.2,0.7
	c-0.1,0.2-0.3,0.6-0.6,1c-0.3,0.5-0.9,1.2-1.6,2.2h-0.4C67.5,35.9,68.2,34.9,68.4,34.5z M63.9,32.2l-4.7,7.3h-0.5l4.7-7.3H63.9z
	 M60.8,39.5l-0.6-1l0.2-0.4l0.9,1.4H60.8z M60.9,55.8l-0.5,1l-3.6-7.4h0.9L60.9,55.8z M60.6,37.8l0.2-0.3l1.3,2.1h-0.4L60.6,37.8z
	 M61,37.1l0.2-0.4l1.8,2.8h-0.5L61,37.1z M61.5,36.4l0.2-0.3l2.2,3.5h-0.4L61.5,36.4z M63,32.2l-4.7,7.3h-0.4l4.7-7.3H63z
	 M62.1,32.2l-4.7,7.3H57l4.7-7.3H62.1z M59.3,32.2l0.6,1l-0.2,0.4l-0.9-1.3H59.3z M58.4,32.2l1.1,1.7l-0.2,0.4l-1.3-2H58.4z
	 M57.5,32.2l1.5,2.4l-0.2,0.3L57,32.2H57.5z M56.6,32.2l2,3.1l-0.2,0.4l-2.2-3.5H56.6z M60.8,32.2h0.5l-4.7,7.3h-0.4L60.8,32.2z
	 M55.9,49.4l4.1,8.4l-0.5,1L55,49.4H55.9z M59.1,59.8l-0.5,1l-5.5-11.4h0.9L59.1,59.8z M47.4,33.3h7.1v0.6H48v0.6h6.5v0.6H48v0.6
	h6.5v0.6H48v2.4h3.3v0.6H48V40h3.3v0.6H48v0.6h3.3v0.6H48v2.4h6.5v0.6H48v0.6h6.5v0.6H48v0.6h6.5v0.6h-7.1V33.3z M47,49.4h0.9v16.8
	L47,64.7V49.4z M46.2,33.3h0.6v14h-0.6V33.3z M45,33.3h0.6v14H45V33.3z M46.1,49.4v13.8l-0.9-1.5V49.4H46.1z M43.7,33.3h0.6v14h-0.6
	V33.3z M43.3,49.4h0.9v10.8l-0.9-1.5V49.4z M42.3,33.3l-3.6,7l3.6,7h-0.7l-3.6-7l3.6-7H42.3z M40.9,33.3l-3.6,7l3.6,7h-0.7l-3.6-7
	l3.6-7H40.9z M39.5,33.3l-3.6,7l3.6,7h-0.7l-3.6-7l3.6-7H39.5z M37.5,33.3h0.7l-3.6,7l3.6,7h-0.7l-3.6-7L37.5,33.3z M33,33.3h0.6v14
	H33V33.3z M31.7,33.3h0.6v14h-0.6V33.3z M30.5,33.3h0.6v14h-0.6V33.3z M28.4,70.4h-2c-1.4,0-2.7-0.3-3.9-1c-1.2-0.6-2.1-1.6-2.9-2.9
	c-0.7-1.3-1.1-2.7-1.1-4.4v-5.2c0-0.5-0.1-0.9-0.2-1c-0.1-0.2-0.4-0.3-0.6-0.3h-1.3v-1.2h1.3c0.6,0,1.1,0.2,1.5,0.6
	c0.4,0.4,0.6,1.1,0.6,1.9v5.2c0,2.1,0.6,3.8,1.9,5.1c1.3,1.3,2.8,1.9,4.7,1.9h2.1V70.4z M28.4,67.9h-2c-1.5,0-2.8-0.5-3.8-1.6
	c-1-1-1.6-2.4-1.6-4.2v-5.2c0-1.2-0.3-2.1-0.9-2.8c-0.6-0.6-1.4-1-2.3-1h-1.4V52h1.4c1.2,0,2.3,0.4,3.1,1.3c0.9,0.9,1.3,2.1,1.3,3.7
	v5.2c0,1.4,0.4,2.5,1.2,3.3c0.8,0.8,1.8,1.2,2.9,1.2h2V67.9z M28.4,65.4h-2c-0.8,0-1.5-0.3-2.1-0.9c-0.6-0.6-0.8-1.4-0.8-2.4v-5.2
	c0-1-0.2-1.9-0.5-2.7c-0.3-0.8-0.7-1.5-1.2-2s-1.1-0.9-1.8-1.2c-0.7-0.3-1.4-0.4-2.1-0.4h-1.4v-1.2h1.3c0.9,0,1.8,0.2,2.6,0.5
	c0.8,0.3,1.6,0.8,2.2,1.5c0.6,0.6,1.2,1.4,1.5,2.4c0.4,0.9,0.6,2,0.6,3.1v5.2c0,0.6,0.2,1.1,0.5,1.5s0.7,0.5,1.2,0.5h2.1V65.4z
	 M28.4,39.6h-2.1c-0.5,0-0.9,0.2-1.2,0.5s-0.5,0.9-0.5,1.5v6.6c0,1.3-0.2,2.4-0.7,3.5L23,50.8c0.3-0.8,0.4-1.6,0.4-2.6v-6.6
	c0-1,0.3-1.8,0.8-2.4c0.6-0.6,1.2-0.9,2.1-0.9h2V39.6z M28.4,37.1h-2c-1.2,0-2.1,0.4-2.9,1.2c-0.8,0.8-1.2,1.9-1.2,3.3v6.6
	c0,0.6-0.1,1.2-0.3,1.8l-1.1-0.6c0.1-0.6,0.2-1,0.2-1.2v-6.6c0-1.8,0.5-3.2,1.6-4.2c1.1-1,2.3-1.6,3.8-1.6h2V37.1z M28.4,34.6h-2.1
	c-1.8,0-3.4,0.6-4.7,1.9c-1.3,1.3-1.9,3-1.9,5.1v6.6c0,0.3,0,0.6-0.1,0.8l-1.2-0.1c0-0.2,0.1-0.5,0.1-0.7v-6.6
	c0-1.6,0.4-3.1,1.1-4.4c0.7-1.3,1.7-2.2,2.9-2.9c1.2-0.6,2.5-1,3.9-1h2V34.6z M29.3,33.3h0.6v14h-0.6V33.3z M32.1,70.3h-0.9V53.5
	l0.9,1.5V70.3z M33.9,70.3H33V56.5l0.9,1.5V70.3z M35.7,70.3h-0.9V59.5l0.9,1.5V70.3z M42.2,70.3L30.3,50.9v19.4h-0.9V49.4
	c0,0,0.4,0,1.1,0l12.8,20.9H42.2z M44.4,70.3L31.5,49.4h1.1l12.9,20.9H44.4z M46.5,70.3L33.7,49.4h1.1l12.8,20.9H46.5z M49.7,70.3
	c0,0-0.4,0-1.1,0L35.8,49.4h1.1l11.9,19.4V49.4h0.9V70.3z M56.8,70.3h-6.3v-1.2h6.3V70.3z M56.8,67.9h-6.3v-1.2h6.3V67.9z
	 M56.8,65.4h-6.3v-1.2h6.3V65.4z M58.8,70.3h-0.9v-7l-6.6-13.9h0.9l6.1,12.9l6.1-12.9h0.9l-6.6,13.9V70.3z M60.7,70.3h-0.9v-7
	l6.6-13.9h0.9l-6.6,13.9V70.3z M62.5,70.3h-0.9v-7l6.6-13.9h0.9l-6.6,13.9V70.3z M64.3,70.3h-0.9v-7L70,49.4h0.9l-6.6,13.9V70.3z
	 M75.7,55.6v6.6c0,1-0.3,1.8-0.8,2.4c-0.6,0.6-1.2,0.9-2.1,0.9h-5.4h-2v-1.2h2h5.5c0.5,0,0.8-0.2,1.2-0.5c0.3-0.4,0.5-0.9,0.5-1.5
	v-6.6c0-1.3,0.2-2.4,0.7-3.5l0.9,0.9C75.8,53.7,75.7,54.6,75.7,55.6z M76.9,62.1v-6.6c0-0.6,0.1-1.2,0.3-1.8l1.2,0.6
	c-0.1,0.6-0.2,1-0.2,1.2v6.6c0,1.8-0.5,3.2-1.6,4.2c-1,1-2.3,1.6-3.8,1.6h-5.4h-2v-1.2h2h5.4c1.2,0,2.1-0.4,2.9-1.2
	C76.5,64.7,76.9,63.6,76.9,62.1z M80.6,55.6v6.6c0,1.6-0.4,3.1-1.1,4.4c-0.7,1.3-1.7,2.2-2.9,2.9c-1.2,0.6-2.5,1-3.8,1h-5.4h-2v-1.2
	h2h5.4c1.8,0,3.4-0.6,4.7-1.9c1.3-1.3,1.9-3,1.9-5.1v-6.6c0-0.3,0-0.6,0.1-0.8l1.2,0.1C80.6,55.1,80.6,55.3,80.6,55.6z M82.7,54.3
	h-1.3c-0.9,0-1.8-0.2-2.6-0.5c-0.8-0.3-1.6-0.8-2.2-1.5c-0.6-0.6-1.1-1.4-1.5-2.4c-0.4-1-0.6-2-0.6-3.1v-5.2c0-0.6-0.2-1.1-0.5-1.5
	c-0.3-0.4-0.7-0.5-1.2-0.5h-2.1v-1.2h2c0.8,0,1.5,0.3,2.1,0.9c0.6,0.6,0.8,1.4,0.8,2.4v5.2c0,1,0.2,1.8,0.5,2.6
	c0.3,0.8,0.8,1.5,1.3,2c0.5,0.5,1.1,0.9,1.8,1.2c0.7,0.3,1.4,0.4,2.1,0.4h1.4V54.3z M82.7,51.8h-1.4c-1.2,0-2.3-0.4-3.1-1.3
	c-0.9-0.9-1.3-2.1-1.3-3.7v-5.2c0-1.4-0.4-2.5-1.2-3.3c-0.8-0.8-1.8-1.2-2.9-1.2h-2v-1.2h2c1.5,0,2.8,0.5,3.8,1.6
	c1.1,1,1.6,2.4,1.6,4.2v5.2c0,1.2,0.3,2.1,0.9,2.8c0.6,0.7,1.4,1,2.3,1h1.4V51.8z M82.7,49.3h-1.3c-0.6,0-1.1-0.2-1.4-0.6
	c-0.4-0.4-0.6-1-0.6-1.9v-5.2c0-2.1-0.7-3.8-1.9-5.1c-1.3-1.3-2.8-1.9-4.7-1.9h-2v-1.2h2c1.4,0,2.7,0.3,3.8,1
	c1.2,0.6,2.2,1.6,2.9,2.9c0.7,1.3,1.1,2.7,1.1,4.4v5.2c0,0.5,0.1,0.9,0.2,1c0.1,0.2,0.4,0.3,0.6,0.3h1.3V49.3z"/>
</svg>
